<?xml version="1.0" encoding="UTF-8"?>
<svg xmlns="http://www.w3.org/2000/svg" viewBox="0 0 500 500">
  <g>
    <path fill="#FF5722" d="M250 100c-27.6 0-50 22.4-50 50s22.4 50 50 50 50-22.4 50-50-22.4-50-50-50z"/>
    <path fill="#1A237E" d="M200 150c0-27.6 22.4-50 50-50v100c-27.6 0-50-22.4-50-50z"/>
    <path fill="#FF5722" d="M300 150c0 27.6-22.4 50-50 50v-100c27.6 0 50 22.4 50 50z"/>
    <path fill="#1A237E" d="M250 300c-82.8 0-150-67.2-150-150s67.2-150 150-150 150 67.2 150 150-67.2 150-150 150zm0-280c-71.7 0-130 58.3-130 130s58.3 130 130 130 130-58.3 130-130-58.3-130-130-130z"/>
  </g>
</svg>